<mxfile host="app.diagrams.net" modified="2023-07-15T06:56:22.679Z" agent="Mozilla/5.0 (Windows NT 10.0; Win64; x64) AppleWebKit/537.36 (KHTML, like Gecko) Chrome/114.0.0.0 Safari/537.36" etag="-SNHdhcq8KtbaIz-zA9Q" version="21.6.2" type="github">
  <diagram id="C5RBs43oDa-KdzZeNtuy" name="Page-1">
    <mxGraphModel dx="880" dy="572" grid="1" gridSize="10" guides="1" tooltips="1" connect="1" arrows="1" fold="1" page="1" pageScale="1" pageWidth="827" pageHeight="1169" math="0" shadow="0">
      <root>
        <mxCell id="WIyWlLk6GJQsqaUBKTNV-0" />
        <mxCell id="WIyWlLk6GJQsqaUBKTNV-1" parent="WIyWlLk6GJQsqaUBKTNV-0" />
        <mxCell id="jDc-DO-Nr4QKycDwIe2J-2" value="" style="edgeStyle=none;curved=1;rounded=0;orthogonalLoop=1;jettySize=auto;html=1;fontSize=12;startSize=8;endSize=8;" edge="1" parent="WIyWlLk6GJQsqaUBKTNV-1" source="jDc-DO-Nr4QKycDwIe2J-0" target="jDc-DO-Nr4QKycDwIe2J-1">
          <mxGeometry relative="1" as="geometry" />
        </mxCell>
        <mxCell id="jDc-DO-Nr4QKycDwIe2J-0" value="start" style="ellipse;whiteSpace=wrap;html=1;fontSize=16;" vertex="1" parent="WIyWlLk6GJQsqaUBKTNV-1">
          <mxGeometry x="377" width="74" height="49.33" as="geometry" />
        </mxCell>
        <mxCell id="jDc-DO-Nr4QKycDwIe2J-4" value="" style="edgeStyle=none;curved=1;rounded=0;orthogonalLoop=1;jettySize=auto;html=1;fontSize=12;startSize=8;endSize=8;" edge="1" parent="WIyWlLk6GJQsqaUBKTNV-1" source="jDc-DO-Nr4QKycDwIe2J-1" target="jDc-DO-Nr4QKycDwIe2J-3">
          <mxGeometry relative="1" as="geometry" />
        </mxCell>
        <mxCell id="jDc-DO-Nr4QKycDwIe2J-5" value="&lt;font style=&quot;font-size: 12px;&quot;&gt;login&lt;/font&gt;" style="edgeLabel;html=1;align=center;verticalAlign=middle;resizable=0;points=[];fontSize=16;" vertex="1" connectable="0" parent="jDc-DO-Nr4QKycDwIe2J-4">
          <mxGeometry x="-0.2045" y="2" relative="1" as="geometry">
            <mxPoint x="-2" as="offset" />
          </mxGeometry>
        </mxCell>
        <mxCell id="jDc-DO-Nr4QKycDwIe2J-8" value="" style="edgeStyle=none;curved=1;rounded=0;orthogonalLoop=1;jettySize=auto;html=1;fontSize=12;startSize=8;endSize=8;" edge="1" parent="WIyWlLk6GJQsqaUBKTNV-1" source="jDc-DO-Nr4QKycDwIe2J-1" target="jDc-DO-Nr4QKycDwIe2J-7">
          <mxGeometry relative="1" as="geometry" />
        </mxCell>
        <mxCell id="jDc-DO-Nr4QKycDwIe2J-9" value="&lt;font style=&quot;font-size: 12px;&quot;&gt;registration&lt;/font&gt;" style="edgeLabel;html=1;align=center;verticalAlign=middle;resizable=0;points=[];fontSize=16;" vertex="1" connectable="0" parent="jDc-DO-Nr4QKycDwIe2J-8">
          <mxGeometry x="0.0323" y="-1" relative="1" as="geometry">
            <mxPoint x="-8" y="-13" as="offset" />
          </mxGeometry>
        </mxCell>
        <mxCell id="jDc-DO-Nr4QKycDwIe2J-11" value="" style="edgeStyle=none;curved=1;rounded=0;orthogonalLoop=1;jettySize=auto;html=1;fontSize=12;startSize=8;endSize=8;" edge="1" parent="WIyWlLk6GJQsqaUBKTNV-1" source="jDc-DO-Nr4QKycDwIe2J-1" target="jDc-DO-Nr4QKycDwIe2J-10">
          <mxGeometry relative="1" as="geometry" />
        </mxCell>
        <mxCell id="jDc-DO-Nr4QKycDwIe2J-21" value="&lt;font style=&quot;font-size: 12px;&quot;&gt;forgot&amp;nbsp;&lt;br&gt;pass&lt;/font&gt;" style="edgeLabel;html=1;align=center;verticalAlign=middle;resizable=0;points=[];fontSize=16;" vertex="1" connectable="0" parent="jDc-DO-Nr4QKycDwIe2J-11">
          <mxGeometry x="-0.4054" y="2" relative="1" as="geometry">
            <mxPoint x="-11" y="-5" as="offset" />
          </mxGeometry>
        </mxCell>
        <mxCell id="jDc-DO-Nr4QKycDwIe2J-1" value="&lt;p style=&quot;line-height: 80%;&quot;&gt;&lt;font style=&quot;font-size: 12px;&quot;&gt;login/&lt;br&gt;regis/&lt;br&gt;forgotpass&lt;/font&gt;&lt;/p&gt;" style="rhombus;whiteSpace=wrap;html=1;fontSize=16;" vertex="1" parent="WIyWlLk6GJQsqaUBKTNV-1">
          <mxGeometry x="344" y="80" width="139" height="83.58" as="geometry" />
        </mxCell>
        <mxCell id="jDc-DO-Nr4QKycDwIe2J-34" style="edgeStyle=none;curved=1;rounded=0;orthogonalLoop=1;jettySize=auto;html=1;exitX=0.5;exitY=1;exitDx=0;exitDy=0;entryX=0.5;entryY=0;entryDx=0;entryDy=0;entryPerimeter=0;fontSize=12;startSize=8;endSize=8;" edge="1" parent="WIyWlLk6GJQsqaUBKTNV-1" source="jDc-DO-Nr4QKycDwIe2J-3" target="jDc-DO-Nr4QKycDwIe2J-33">
          <mxGeometry relative="1" as="geometry" />
        </mxCell>
        <mxCell id="jDc-DO-Nr4QKycDwIe2J-3" value="&lt;font style=&quot;font-size: 12px;&quot;&gt;your acc&lt;/font&gt;" style="shape=parallelogram;perimeter=parallelogramPerimeter;whiteSpace=wrap;html=1;fixedSize=1;fontSize=16;" vertex="1" parent="WIyWlLk6GJQsqaUBKTNV-1">
          <mxGeometry x="357" y="408.71" width="114" height="57" as="geometry" />
        </mxCell>
        <mxCell id="jDc-DO-Nr4QKycDwIe2J-16" value="" style="edgeStyle=none;curved=1;rounded=0;orthogonalLoop=1;jettySize=auto;html=1;fontSize=12;startSize=8;endSize=8;" edge="1" parent="WIyWlLk6GJQsqaUBKTNV-1" source="jDc-DO-Nr4QKycDwIe2J-7" target="jDc-DO-Nr4QKycDwIe2J-15">
          <mxGeometry relative="1" as="geometry" />
        </mxCell>
        <mxCell id="jDc-DO-Nr4QKycDwIe2J-7" value="&lt;font style=&quot;font-size: 12px;&quot;&gt;your info&lt;/font&gt;" style="shape=parallelogram;perimeter=parallelogramPerimeter;whiteSpace=wrap;html=1;fixedSize=1;fontSize=16;" vertex="1" parent="WIyWlLk6GJQsqaUBKTNV-1">
          <mxGeometry x="560" y="91.79" width="110" height="55" as="geometry" />
        </mxCell>
        <mxCell id="jDc-DO-Nr4QKycDwIe2J-23" value="" style="edgeStyle=none;curved=1;rounded=0;orthogonalLoop=1;jettySize=auto;html=1;fontSize=12;startSize=8;endSize=8;" edge="1" parent="WIyWlLk6GJQsqaUBKTNV-1" source="jDc-DO-Nr4QKycDwIe2J-10" target="jDc-DO-Nr4QKycDwIe2J-22">
          <mxGeometry relative="1" as="geometry" />
        </mxCell>
        <mxCell id="jDc-DO-Nr4QKycDwIe2J-10" value="&lt;font style=&quot;font-size: 12px;&quot;&gt;email&lt;/font&gt;" style="shape=parallelogram;perimeter=parallelogramPerimeter;whiteSpace=wrap;html=1;fixedSize=1;fontSize=16;" vertex="1" parent="WIyWlLk6GJQsqaUBKTNV-1">
          <mxGeometry x="170" y="91.79" width="110" height="55" as="geometry" />
        </mxCell>
        <mxCell id="jDc-DO-Nr4QKycDwIe2J-17" style="edgeStyle=orthogonalEdgeStyle;rounded=0;orthogonalLoop=1;jettySize=auto;html=1;exitX=1;exitY=0.5;exitDx=0;exitDy=0;entryX=1;entryY=0.5;entryDx=0;entryDy=0;fontSize=12;startSize=8;endSize=8;" edge="1" parent="WIyWlLk6GJQsqaUBKTNV-1" source="jDc-DO-Nr4QKycDwIe2J-15" target="jDc-DO-Nr4QKycDwIe2J-7">
          <mxGeometry relative="1" as="geometry">
            <mxPoint x="655" y="229.99999999999994" as="targetPoint" />
            <Array as="points">
              <mxPoint x="735" y="437" />
              <mxPoint x="735" y="119" />
            </Array>
          </mxGeometry>
        </mxCell>
        <mxCell id="jDc-DO-Nr4QKycDwIe2J-19" value="" style="edgeStyle=none;curved=1;rounded=0;orthogonalLoop=1;jettySize=auto;html=1;fontSize=12;startSize=8;endSize=8;" edge="1" parent="WIyWlLk6GJQsqaUBKTNV-1" source="jDc-DO-Nr4QKycDwIe2J-15" target="jDc-DO-Nr4QKycDwIe2J-3">
          <mxGeometry relative="1" as="geometry" />
        </mxCell>
        <mxCell id="jDc-DO-Nr4QKycDwIe2J-20" value="&lt;font style=&quot;font-size: 12px;&quot;&gt;complete&lt;/font&gt;" style="edgeLabel;html=1;align=center;verticalAlign=middle;resizable=0;points=[];fontSize=16;" vertex="1" connectable="0" parent="jDc-DO-Nr4QKycDwIe2J-19">
          <mxGeometry x="-0.2075" y="-1" relative="1" as="geometry">
            <mxPoint y="-11" as="offset" />
          </mxGeometry>
        </mxCell>
        <mxCell id="jDc-DO-Nr4QKycDwIe2J-15" value="&lt;font style=&quot;font-size: 13px;&quot;&gt;validate&lt;br&gt;the info&lt;br&gt;&lt;/font&gt;" style="rhombus;whiteSpace=wrap;html=1;fontSize=16;" vertex="1" parent="WIyWlLk6GJQsqaUBKTNV-1">
          <mxGeometry x="575" y="397.21" width="80" height="80" as="geometry" />
        </mxCell>
        <mxCell id="jDc-DO-Nr4QKycDwIe2J-18" value="&lt;font style=&quot;font-size: 12px;&quot;&gt;missing&lt;/font&gt;" style="text;html=1;align=center;verticalAlign=middle;resizable=0;points=[];autosize=1;strokeColor=none;fillColor=none;fontSize=16;rotation=0;" vertex="1" parent="WIyWlLk6GJQsqaUBKTNV-1">
          <mxGeometry x="665" y="408.71" width="60" height="30" as="geometry" />
        </mxCell>
        <mxCell id="jDc-DO-Nr4QKycDwIe2J-25" value="" style="edgeStyle=none;curved=1;rounded=0;orthogonalLoop=1;jettySize=auto;html=1;fontSize=12;startSize=8;endSize=8;" edge="1" parent="WIyWlLk6GJQsqaUBKTNV-1" source="jDc-DO-Nr4QKycDwIe2J-22" target="jDc-DO-Nr4QKycDwIe2J-24">
          <mxGeometry relative="1" as="geometry" />
        </mxCell>
        <mxCell id="jDc-DO-Nr4QKycDwIe2J-28" value="&lt;font style=&quot;font-size: 12px;&quot;&gt;exist&lt;/font&gt;" style="edgeLabel;html=1;align=center;verticalAlign=middle;resizable=0;points=[];fontSize=16;" vertex="1" connectable="0" parent="jDc-DO-Nr4QKycDwIe2J-25">
          <mxGeometry x="-0.341" y="-1" relative="1" as="geometry">
            <mxPoint as="offset" />
          </mxGeometry>
        </mxCell>
        <mxCell id="jDc-DO-Nr4QKycDwIe2J-26" style="edgeStyle=orthogonalEdgeStyle;rounded=0;orthogonalLoop=1;jettySize=auto;html=1;exitX=0.5;exitY=0;exitDx=0;exitDy=0;entryX=0.5;entryY=0;entryDx=0;entryDy=0;fontSize=12;startSize=8;endSize=8;" edge="1" parent="WIyWlLk6GJQsqaUBKTNV-1" source="jDc-DO-Nr4QKycDwIe2J-22" target="jDc-DO-Nr4QKycDwIe2J-10">
          <mxGeometry relative="1" as="geometry" />
        </mxCell>
        <mxCell id="jDc-DO-Nr4QKycDwIe2J-27" value="&lt;font style=&quot;font-size: 12px;&quot;&gt;not exist&lt;/font&gt;" style="edgeLabel;html=1;align=center;verticalAlign=middle;resizable=0;points=[];fontSize=16;" vertex="1" connectable="0" parent="jDc-DO-Nr4QKycDwIe2J-26">
          <mxGeometry x="-0.0554" y="2" relative="1" as="geometry">
            <mxPoint y="-10" as="offset" />
          </mxGeometry>
        </mxCell>
        <mxCell id="jDc-DO-Nr4QKycDwIe2J-22" value="&lt;font style=&quot;font-size: 12px;&quot;&gt;exist/&lt;br&gt;or not ?&lt;/font&gt;" style="rhombus;whiteSpace=wrap;html=1;fontSize=16;" vertex="1" parent="WIyWlLk6GJQsqaUBKTNV-1">
          <mxGeometry x="30" y="79.29" width="80" height="80" as="geometry" />
        </mxCell>
        <mxCell id="jDc-DO-Nr4QKycDwIe2J-39" value="" style="edgeStyle=none;curved=1;rounded=0;orthogonalLoop=1;jettySize=auto;html=1;fontSize=12;startSize=8;endSize=8;" edge="1" parent="WIyWlLk6GJQsqaUBKTNV-1" source="jDc-DO-Nr4QKycDwIe2J-24" target="jDc-DO-Nr4QKycDwIe2J-38">
          <mxGeometry relative="1" as="geometry" />
        </mxCell>
        <mxCell id="jDc-DO-Nr4QKycDwIe2J-24" value="&lt;font style=&quot;font-size: 12px;&quot;&gt;code &lt;br&gt;reset&lt;/font&gt;" style="shape=parallelogram;perimeter=parallelogramPerimeter;whiteSpace=wrap;html=1;fixedSize=1;fontSize=16;" vertex="1" parent="WIyWlLk6GJQsqaUBKTNV-1">
          <mxGeometry x="17.5" y="211" width="105" height="52.5" as="geometry" />
        </mxCell>
        <mxCell id="jDc-DO-Nr4QKycDwIe2J-49" style="edgeStyle=none;curved=1;rounded=0;orthogonalLoop=1;jettySize=auto;html=1;exitX=0;exitY=0.5;exitDx=0;exitDy=0;exitPerimeter=0;entryX=1;entryY=0.5;entryDx=0;entryDy=0;entryPerimeter=0;fontSize=12;shape=link;" edge="1" parent="WIyWlLk6GJQsqaUBKTNV-1" source="jDc-DO-Nr4QKycDwIe2J-33" target="jDc-DO-Nr4QKycDwIe2J-48">
          <mxGeometry relative="1" as="geometry" />
        </mxCell>
        <mxCell id="jDc-DO-Nr4QKycDwIe2J-51" value="" style="edgeStyle=none;curved=1;rounded=0;orthogonalLoop=1;jettySize=auto;html=1;fontSize=12;shape=link;" edge="1" parent="WIyWlLk6GJQsqaUBKTNV-1" source="jDc-DO-Nr4QKycDwIe2J-33" target="jDc-DO-Nr4QKycDwIe2J-50">
          <mxGeometry relative="1" as="geometry" />
        </mxCell>
        <mxCell id="jDc-DO-Nr4QKycDwIe2J-33" value="&lt;font style=&quot;font-size: 12px;&quot;&gt;landing&lt;br&gt;page&lt;/font&gt;" style="strokeWidth=2;html=1;shape=mxgraph.flowchart.display;whiteSpace=wrap;fontSize=16;" vertex="1" parent="WIyWlLk6GJQsqaUBKTNV-1">
          <mxGeometry x="368" y="540" width="91" height="54.6" as="geometry" />
        </mxCell>
        <mxCell id="jDc-DO-Nr4QKycDwIe2J-42" style="edgeStyle=orthogonalEdgeStyle;rounded=0;orthogonalLoop=1;jettySize=auto;html=1;exitX=1;exitY=0.5;exitDx=0;exitDy=0;entryX=1;entryY=0.5;entryDx=0;entryDy=0;fontSize=12;startSize=8;endSize=8;" edge="1" parent="WIyWlLk6GJQsqaUBKTNV-1" source="jDc-DO-Nr4QKycDwIe2J-38" target="jDc-DO-Nr4QKycDwIe2J-24">
          <mxGeometry relative="1" as="geometry">
            <Array as="points">
              <mxPoint x="140" y="337" />
              <mxPoint x="140" y="237" />
            </Array>
          </mxGeometry>
        </mxCell>
        <mxCell id="jDc-DO-Nr4QKycDwIe2J-43" value="&lt;font style=&quot;font-size: 12px;&quot;&gt;false&lt;/font&gt;" style="edgeLabel;html=1;align=center;verticalAlign=middle;resizable=0;points=[];fontSize=16;" vertex="1" connectable="0" parent="jDc-DO-Nr4QKycDwIe2J-42">
          <mxGeometry x="0.1328" relative="1" as="geometry">
            <mxPoint as="offset" />
          </mxGeometry>
        </mxCell>
        <mxCell id="jDc-DO-Nr4QKycDwIe2J-45" value="" style="edgeStyle=none;curved=1;rounded=0;orthogonalLoop=1;jettySize=auto;html=1;fontSize=12;startSize=8;endSize=8;" edge="1" parent="WIyWlLk6GJQsqaUBKTNV-1" source="jDc-DO-Nr4QKycDwIe2J-38" target="jDc-DO-Nr4QKycDwIe2J-44">
          <mxGeometry relative="1" as="geometry" />
        </mxCell>
        <mxCell id="jDc-DO-Nr4QKycDwIe2J-46" value="&lt;font style=&quot;font-size: 12px;&quot;&gt;true&lt;/font&gt;" style="edgeLabel;html=1;align=center;verticalAlign=middle;resizable=0;points=[];fontSize=16;" vertex="1" connectable="0" parent="jDc-DO-Nr4QKycDwIe2J-45">
          <mxGeometry x="-0.355" y="2" relative="1" as="geometry">
            <mxPoint as="offset" />
          </mxGeometry>
        </mxCell>
        <mxCell id="jDc-DO-Nr4QKycDwIe2J-38" value="&lt;font style=&quot;font-size: 12px;&quot;&gt;is it&lt;br&gt;true ?&lt;/font&gt;" style="rhombus;whiteSpace=wrap;html=1;fontSize=16;" vertex="1" parent="WIyWlLk6GJQsqaUBKTNV-1">
          <mxGeometry x="35" y="301.71" width="70" height="70" as="geometry" />
        </mxCell>
        <mxCell id="jDc-DO-Nr4QKycDwIe2J-47" style="edgeStyle=none;curved=1;rounded=0;orthogonalLoop=1;jettySize=auto;html=1;exitX=1;exitY=0.5;exitDx=0;exitDy=0;entryX=0;entryY=0.5;entryDx=0;entryDy=0;fontSize=12;startSize=8;endSize=8;" edge="1" parent="WIyWlLk6GJQsqaUBKTNV-1" source="jDc-DO-Nr4QKycDwIe2J-44" target="jDc-DO-Nr4QKycDwIe2J-3">
          <mxGeometry relative="1" as="geometry" />
        </mxCell>
        <mxCell id="jDc-DO-Nr4QKycDwIe2J-44" value="&lt;p style=&quot;line-height: 90%; font-size: 12px;&quot;&gt;new&lt;br&gt;pass&lt;br&gt;&lt;/p&gt;" style="shape=parallelogram;perimeter=parallelogramPerimeter;whiteSpace=wrap;html=1;fixedSize=1;fontSize=16;" vertex="1" parent="WIyWlLk6GJQsqaUBKTNV-1">
          <mxGeometry x="12.5" y="411.71" width="110" height="55" as="geometry" />
        </mxCell>
        <mxCell id="jDc-DO-Nr4QKycDwIe2J-48" value="&lt;font style=&quot;font-size: 12px;&quot;&gt;profile&lt;/font&gt;" style="strokeWidth=2;html=1;shape=mxgraph.flowchart.display;whiteSpace=wrap;fontSize=16;" vertex="1" parent="WIyWlLk6GJQsqaUBKTNV-1">
          <mxGeometry x="160" y="540" width="93" height="55.8" as="geometry" />
        </mxCell>
        <mxCell id="jDc-DO-Nr4QKycDwIe2J-50" value="&lt;span style=&quot;font-size: 12px;&quot;&gt;recipe&lt;/span&gt;" style="strokeWidth=2;html=1;shape=mxgraph.flowchart.display;whiteSpace=wrap;fontSize=16;" vertex="1" parent="WIyWlLk6GJQsqaUBKTNV-1">
          <mxGeometry x="579" y="540" width="91" height="54.6" as="geometry" />
        </mxCell>
      </root>
    </mxGraphModel>
  </diagram>
</mxfile>
